<?xml version="1.0" standalone="no"?><!DOCTYPE svg PUBLIC "-//W3C//DTD SVG 1.1//EN" "http://www.w3.org/Graphics/SVG/1.1/DTD/svg11.dtd"><svg t="1577239163813" class="icon" viewBox="0 0 1024 1024" version="1.1" xmlns="http://www.w3.org/2000/svg" p-id="4670" xmlns:xlink="http://www.w3.org/1999/xlink" width="81" height="81"><defs><style type="text/css"></style></defs><path d="M705.7 2h-534c-50.6 0-91 41.1-91 91v838c0 50.6 41.1 91 91 91h680.6c49.9 0 91-41.1 91-91V239.6L705.7 2z m16.4 96.7l124.5 124.5H735.4c-7 0-13.3-6.3-13.3-13.3V98.7zM886.4 931c0 19-15.2 34.1-34.1 34.1H171.7c-19 0-34.1-15.2-34.1-34.1V93c0-19 15.2-34.1 34.1-34.1v-0.6h493.6V210c0 38.6 31.6 70.1 70.1 70.1h151V931z" fill="" p-id="4671"></path><path d="M300.6 349h244.6c15.8 0 28.4-12.6 28.4-28.4s-12.6-28.4-28.4-28.4H300.6c-15.8 0-28.4 12.6-28.4 28.4s12.6 28.4 28.4 28.4zM722.8 683.9H300.6c-15.8 0-28.4 12.6-28.4 28.4s12.6 28.4 28.4 28.4h422.2c15.8 0 28.4-12.6 28.4-28.4s-12.6-28.4-28.4-28.4zM300.6 491.1c-15.8 0-28.4 12.6-28.4 28.4 0 15.8 12.6 28.4 28.4 28.4h422.2c15.8 0 28.4-12.6 28.4-28.4 0-15.8-12.6-28.4-28.4-28.4H300.6z" fill="" p-id="4672"></path></svg>