<?xml version="1.0" standalone="no"?><!DOCTYPE svg PUBLIC "-//W3C//DTD SVG 1.1//EN" "http://www.w3.org/Graphics/SVG/1.1/DTD/svg11.dtd"><svg t="1576738765714" class="icon" viewBox="0 0 1024 1024" version="1.1" xmlns="http://www.w3.org/2000/svg" p-id="3511" xmlns:xlink="http://www.w3.org/1999/xlink" width="81" height="81"><defs><style type="text/css"></style></defs><path d="M795.264 563.648c0-21.632 17.728-38.72 39.488-38.72 21.504 0 38.72 17.152 38.72 38.72l0 382.848c0 21.504-17.28 38.976-38.72 38.976l-1.28 0L190.144 985.472c-21.632 0-39.36-17.472-39.36-38.976l0-1.024L150.784 563.648c0-21.632 17.728-38.72 39.36-38.72 21.184 0 38.912 17.152 38.912 38.72l0 343.616 566.208 0L795.264 563.648 795.264 563.648zM70.336 574.336 70.336 574.336l441.472-441.28 442.048 441.28c14.976 14.976 40 14.976 54.976 0 15.232-15.04 15.232-40.064 0-55.04L540.48 50.24 539.648 49.728c-15.296-15.04-40-15.04-55.296 0L15.296 519.232c-15.488 14.976-15.488 40 0 55.04C30.336 589.312 55.36 589.312 70.336 574.336L70.336 574.336z" p-id="3512"></path></svg>